<?xml version="1.0" encoding="utf-8"?>
<!-- Generator: Adobe Illustrator 17.1.0, SVG Export Plug-In . SVG Version: 6.00 Build 0)  -->
<!DOCTYPE svg PUBLIC "-//W3C//DTD SVG 1.1//EN" "http://www.w3.org/Graphics/SVG/1.1/DTD/svg11.dtd">
<svg version="1.1" id="Layer_1" xmlns="http://www.w3.org/2000/svg" xmlns:xlink="http://www.w3.org/1999/xlink" x="0px" y="0px"
	 viewBox="0 0 340.2 340.2" style="enable-background:new 0 0 340.2 340.2;" xml:space="preserve">
<style type="text/css">
	.st0{fill:#065F78;}
</style>
<g>
	<path class="st0" d="M88.5,219.7c-14.9,0.7-26.8,0.9-38.6,2.1c-8.6,0.8-17.2,2.6-25.7,4.4c-4.3,0.9-5.7,3.7-4.8,8
		c0.8,3.9,1.9,7.7,3.4,11.4c12,29,27.6,56.1,45.9,81.5c6.7,9.2,10.2,9.3,17.4,0.3c4.7-5.9,9.1-12.1,13.6-18.2
		c1.6-2.1,3.1-3.5,5.9-2.1c16.8,7.9,34.3,12.7,52.9,14.1c17.2,1.3,34.2-0.2,50.8-4.7c23.1-6.3,43.7-17.3,61.6-33.3
		c12.6-11.3,23.4-24.1,31-39.2c6.3-12.5,0.4-28-12.5-33.6c-12.2-5.3-24.6-1.3-32.1,10.4c-6,9.4-12.6,18.3-21.2,25.5
		c-31,25.7-65.4,31.3-103.1,17.8c-5.3-1.9-5.3-2.5-3.2-7.7c3-7.1,6.2-14.1,8.6-21.4c2.8-8.7,1.4-11-7.6-11.9
		C115.8,221.5,100.7,220.6,88.5,219.7z M250.6,120.7c15.4-0.7,27.6-1,39.8-2c8-0.7,16-2,23.8-3.9c6.7-1.6,8.1-4.5,6.2-11.1
		c-1.4-4.7-2.8-9.4-4.9-13.7c-7.7-15.4-15.3-30.9-23.9-45.8c-6.7-11.7-14.6-22.6-22.4-33.7c-3.9-5.5-6.6-6-11.2-1.1
		c-6.1,6.5-11.4,13.8-16.8,20.9c-3.2,4.2-3.5,4.4-8.3,2.2c-33.2-15-67.4-17.8-102.6-8.4C106.4,30.5,85.3,42.2,67.2,59
		C55.3,70,45.1,82.4,37.9,97c-4.5,9.1-2.9,18.1,3.4,25.8c6.7,8.3,15.5,11.3,26.1,8.6c7.7-2,12.6-7.1,16.5-13.7
		c7-11.6,16.1-21.2,27-29.3c13.7-10.1,29.2-15.9,46-18.3c17.7-2.5,34.8,0.1,51.3,6.7c4,1.6,4.2,2.5,2.4,6.4
		c-2.6,5.7-5.2,11.4-7.4,17.2c-1.2,3.1-2,6.5-2.6,9.8c-0.6,3.9,0.7,5.6,4.7,6.5c1.3,0.3,2.7,0.6,4,0.7
		C224.1,118.7,238.9,119.8,250.6,120.7z"/>
</g>
</svg>
